<?xml version="1.0" encoding="UTF-8"?>
<svg xmlns="http://www.w3.org/2000/svg" xmlns:xlink="http://www.w3.org/1999/xlink" viewBox="0 0 240 240" width="240px" height="240px">
<g id="surface14037310">
<path style=" stroke:none;fill-rule:nonzero;fill:rgb(89.803922%,3.529412%,7.843138%);fill-opacity:1;" d="M 25 90 C 28.5 90 31.5 90 35 90 C 35 110.5 35 130.5 35 151 C 31 151.5 27 152 23.5 152.5 C 18.5 140 10 118.5 10 118.5 C 10 118.5 10 140 10 154 C 12 154 9 154 0 155.5 C 0 134 0 112 0 90.5 C 4 90.5 10 90.5 10 90.5 L 25 127 C 25 127 25 104 25 90 Z M 73.5 100 C 73.5 97 73.5 93 73.5 90 C 64 90 54.5 90 45 90 C 45 110 45 130 45 150 C 54.5 149 64 148 73.5 147 C 73.5 144 73.5 140 73.5 137 C 67.5 137.5 61.5 137.5 55 139 C 55 133.5 55 130.5 55 125 C 59.5 125 65.5 125 70 125 C 70 122 70 118 70 115 C 65.5 115 59.5 115 55 115 C 55 109.5 55 105.5 55 100 C 58 100.5 71 100.5 73.5 100 Z M 80 100 C 80.5 100 89.5 100 90 100 C 90 116 90 130 90 146 C 93.5 146 96.5 146 100 145.5 C 100 129.5 100 116 100 100 C 103.5 100 106.5 100 110 100 C 110 97 110 93 110 90 C 99.5 90 90.5 90 80 90 C 80 93 80 97 80 100 Z M 143 90 C 133.5 90 124.5 90 115 90 C 115 109 115 126 115 145 C 116 145 117 145 118 145 C 120 145 122.5 145 125 145 C 125 137 125 133 125 125 C 125.5 125 137 125 138.5 125 C 138.5 122 138.5 118 138.5 115 C 137 115 125.5 115 125 115 C 125 110 125 105 125 100 C 126 100 140.5 100 143 100 C 143 97.5 143 93 143 90 Z M 160 137.5 C 160 121 160 106.5 160 90 C 156.5 90 153.5 90 150 90 C 150 109 150 127 150 146 C 159 146.5 168 147 177 148 C 177 145 177 141.5 177 138.5 C 171.5 138 165.5 137.5 160 137.5 Z M 185 148.5 C 188.5 149 191.5 149 195 149.5 C 195 129.5 195 110 195 90 C 191.5 90 188.5 90 185 90 C 185 110 185 129 185 148.5 Z M 227 121 C 231.5 111 235.5 101 240 90.5 C 236.5 90.5 232.5 90.5 229 90.5 C 226.5 97 224.5 101.5 222 107.5 C 219.5 101 218 96.5 215.5 90.5 C 212 90.5 208 90.5 204.5 90.5 C 208.5 100.5 212 110.5 216.5 121 C 212 131 208 141 203.5 151 C 207 151.5 210.5 152 214 152.5 C 216.5 146 219 141.5 221.5 135 C 224 142 226.5 147 229 154 C 232.5 154.5 237 155 240.5 155.5 C 235.5 143.5 231 131.5 227 121 Z M 227 121 "/>
</g>
</svg>
